<svg xmlns="http://www.w3.org/2000/svg">
    <symbol id="logo" fill="none" viewBox="0 0 160 52">
        <path fill="rgb(var(--c-theme))" d="M137.818 0a26.006 26.006 0 0 1 15.279 4.932l-7.727 16.83A16.826 16.826 0 0 0 137.819 20c-8.677 0-15.711 6.417-15.711 14.333s7.034 14.333 15.711 14.333c6.611 0 12.267-3.725 14.587-9h7.596C155.407 47.069 147.191 52 137.819 52c-14.399 0-26.073-11.64-26.073-26S123.42 0 137.819 0h-.001Z">
        </path>
        <path fill="currentColor" d="M28.723 33.328a4.66 4.66 0 0 1-.46 2.061 5.13 5.13 0 0 1-1.246 1.635 5.856 5.856 0 0 1-1.85 1.078 6.525 6.525 0 0 1-2.273.391h-3.288v6.016h-3.723V28.023h6.939c.887 0 1.692.123 2.418.367a5.318 5.318 0 0 1 1.863 1.055 4.667 4.667 0 0 1 1.197 1.67c.282.654.423 1.393.423 2.214Zm-3.773-.07c0-.664-.201-1.157-.605-1.481-.402-.324-.975-.486-1.716-.486h-3.023v3.933h3.12c.612 0 1.136-.178 1.571-.533.435-.356.653-.834.653-1.434Zm11.462-5.354c1.015 0 1.93.163 2.744.486.814.323 1.507.77 2.08 1.338a5.783 5.783 0 0 1 1.318 2.037c.306.79.459 1.642.459 2.558v3.885c0 .98-.157 1.867-.471 2.665a5.789 5.789 0 0 1-1.33 2.037 5.803 5.803 0 0 1-2.079 1.291c-.814.301-1.72.45-2.72.45-1.096 0-2.051-.173-2.866-.52-.814-.347-1.49-.818-2.03-1.41a5.788 5.788 0 0 1-1.21-2.061 7.564 7.564 0 0 1-.399-2.452v-3.885c0-.852.133-1.666.4-2.44a5.812 5.812 0 0 1 1.208-2.049c.54-.592 1.217-1.061 2.031-1.41.815-.347 1.77-.52 2.866-.52h-.001Zm-.037 3.41c-.471 0-.875.076-1.214.226-.341.15-.624.35-.85.604a2.55 2.55 0 0 0-.511.865 2.976 2.976 0 0 0-.17.983v4.477c0 .363.057.71.17 1.042.109.324.283.622.512.877.225.252.508.458.85.615.338.158.74.237 1.213.237.906 0 1.608-.264 2.1-.793.496-.53.742-1.189.742-1.978v-4.477c0-.727-.247-1.354-.742-1.884-.492-.529-1.193-.793-2.1-.793Zm25.572 4.81c0 .93-.154 1.811-.46 2.64a6.552 6.552 0 0 1-1.318 2.18 6.13 6.13 0 0 1-2.116 1.48c-.839.363-1.79.553-2.853.57v1.515h-3.458v-1.516c-1.145-.094-2.136-.332-2.974-.71-.838-.378-1.532-.869-2.079-1.468a5.65 5.65 0 0 1-1.21-2.097 8.388 8.388 0 0 1-.386-2.594c0-.932.14-1.816.423-2.652.281-.837.7-1.576 1.258-2.215a6.02 6.02 0 0 1 2.079-1.528c.83-.378 1.793-.584 2.89-.615v-1.09H55.2v1.09c1.16.078 2.168.303 3.023.674.855.372 1.56.861 2.116 1.468a5.632 5.632 0 0 1 1.22 2.145c.258.821.388 1.728.388 2.724v-.002ZM55.2 40.125c.694-.047 1.25-.182 1.668-.402.42-.221.742-.51.967-.865a3.06 3.06 0 0 0 .436-1.232c.064-.466.097-.976.097-1.528 0-.426-.037-.872-.109-1.338a3.706 3.706 0 0 0-.46-1.303 2.98 2.98 0 0 0-.967-1.006c-.411-.269-.956-.419-1.632-.45v8.124Zm-3.458-8.077c-1.112.143-1.91.556-2.394 1.244-.484.687-.71 1.622-.677 2.808 0 .553.048 1.061.145 1.527.097.465.258.872.484 1.22.225.347.536.632.931.852.395.221.899.363 1.511.426V32.05Zm12.912 12.46V28.023h3.724V38.35h.073l3.458-5.282 3.53-5.045h3.071v16.486h-3.723v-9.973h-.073l-2.466 3.909-4.28 6.064h-3.314Zm45.364-5.021c0 1.642-.52 2.93-1.56 3.86-1.039.933-2.487 1.398-4.341 1.398h-7.085V28.26h3.723v6.324h3.41c.968 0 1.818.139 2.552.415.733.276 1.346.643 1.837 1.101.492.458.858.98 1.1 1.564.241.578.364 1.198.363 1.824h.001Zm-3.773.142c0-.457-.168-.868-.508-1.23-.338-.364-.902-.546-1.692-.546h-3.312v3.624h3.312c.791 0 1.355-.19 1.692-.569.34-.378.508-.806.508-1.279ZM9.222 44.569V34.515c0-1.795-.11-3.174-2.716-3.174H3.717v13.227H0V28.081h8.49c2.233 0 4.403 1.905 4.403 4.46v12.027H9.222Zm75.5 0V34.515c0-1.795.11-3.174 2.716-3.174h2.789v13.227h3.717V28.081h-8.489c-2.235 0-4.403 1.905-4.403 4.46v12.027h3.67Z">
        </path>
    </symbol>

    <symbol id="menu" fill="currentColor" viewBox="0 0 34 20">
        <rect width="34" height="4" fill="#23252D"/>
        <rect y="8" width="34" height="4" fill="#23252D"/>
        <rect x="10" y="16" width="24" height="4" fill="#23252D"/>
    </symbol>

    <symbol id="pipes" fill="currentColor" viewBox="0 0 41 42">
        <path fill-rule="evenodd" clip-rule="evenodd" d="M37.2254 18.6338C37.2254 27.2681 30.2259 34.2676 21.5916 34.2676C21.3585 34.2676 21.1266 34.2625 20.896 34.2524C20.6015 35.2953 20.152 36.2732 19.5741 37.1597C20.2368 37.231 20.9099 37.2676 21.5916 37.2676C31.8827 37.2676 40.2254 28.925 40.2254 18.6338C40.2254 8.34264 31.8827 0 21.5916 0C11.3004 0 2.95776 8.34264 2.95776 18.6338C2.95776 20.2796 3.17113 21.8756 3.57171 23.3955C4.36649 22.6882 5.26796 22.0981 6.24896 21.6525C6.05789 20.6758 5.95776 19.6665 5.95776 18.6338C5.95776 9.99949 12.9573 3 21.5916 3C30.2259 3 37.2254 9.99949 37.2254 18.6338Z" fill="white"/>
        <circle fill="none" cx="10.5" cy="31.5" r="9" stroke="white" stroke-width="3"/>
    </symbol>

    <symbol id="shield" fill="currentColor" viewBox="0 0 33 38">
        <path d="M10.4066 3.77625C8.20408 4.39926 6.01658 5.07712 3.84607 5.80925C3.64773 5.87494 3.4714 5.99666 3.33726 6.16046C3.20312 6.32427 3.11659 6.52355 3.08758 6.7355C1.80645 16.6084 4.76645 23.8118 8.29764 28.557C9.79205 30.5868 11.5748 32.3745 13.5863 33.8604C14.3864 34.4399 15.0941 34.8579 15.6514 35.1263C15.9289 35.2608 16.1547 35.3543 16.3289 35.4065C16.4057 35.4304 16.4837 35.4503 16.5625 35.4659C16.6405 35.4502 16.7177 35.4304 16.7938 35.4065C16.9695 35.3527 17.1961 35.2593 17.4736 35.1263C18.0286 34.8579 18.7386 34.4375 19.5387 33.8604C21.5502 32.3745 23.333 30.5868 24.8274 28.557C28.3586 23.8141 31.3186 16.6084 30.0375 6.7355C30.0084 6.52355 29.9219 6.32427 29.7878 6.16046C29.6536 5.99666 29.4773 5.87494 29.2789 5.80925C27.7735 5.30338 25.2321 4.47925 22.7184 3.77863C20.1515 3.06375 17.7904 2.53413 16.5625 2.53413C15.3369 2.53413 12.9735 3.06138 10.4066 3.77625ZM9.79151 1.33C12.3006 0.629375 14.9669 0 16.5625 0C18.1581 0 20.8245 0.629375 23.3335 1.33C25.9004 2.0425 28.4881 2.88562 30.0097 3.39625C30.6459 3.61202 31.2099 4.00773 31.637 4.53792C32.064 5.0681 32.3368 5.71126 32.424 6.3935C33.8022 17.0264 30.604 24.9066 26.7236 30.1198C25.0775 32.3492 23.1156 34.313 20.9031 35.9456C20.1389 36.5119 19.3279 37.0086 18.4796 37.43C17.8321 37.7435 17.136 38 16.5625 38C15.989 38 15.2953 37.7435 14.6454 37.43C13.7971 37.0086 12.9862 36.5119 12.2219 35.9456C10.0095 34.313 8.04752 32.3492 6.40139 30.1198C2.52101 24.9066 -0.677175 17.0264 0.701075 6.3935C0.788227 5.71126 1.061 5.0681 1.48806 4.53792C1.91512 4.00773 2.47914 3.61202 3.11532 3.39625C5.32435 2.6529 7.55038 1.96395 9.79151 1.33Z" fill="white"/>
        <path d="M23.1624 12.2217C23.27 12.332 23.3555 12.4631 23.4138 12.6074C23.4721 12.7516 23.5021 12.9063 23.5021 13.0625C23.5021 13.2187 23.4721 13.3733 23.4138 13.5176C23.3555 13.6619 23.27 13.7929 23.1624 13.9032L16.2249 21.0282C16.1175 21.1388 15.9899 21.2266 15.8494 21.2864C15.7089 21.3463 15.5583 21.3771 15.4062 21.3771C15.2542 21.3771 15.1036 21.3463 14.9631 21.2864C14.8226 21.2266 14.695 21.1388 14.5876 21.0282L11.1189 17.4657C11.0114 17.3553 10.9261 17.2243 10.8679 17.08C10.8097 16.9357 10.7798 16.7811 10.7798 16.625C10.7798 16.4688 10.8097 16.3142 10.8679 16.17C10.9261 16.0257 11.0114 15.8946 11.1189 15.7842C11.2264 15.6738 11.354 15.5862 11.4945 15.5265C11.6349 15.4667 11.7855 15.436 11.9375 15.436C12.0895 15.436 12.2401 15.4667 12.3805 15.5265C12.521 15.5862 12.6486 15.6738 12.7561 15.7842L15.4062 18.5084L21.5251 12.2217C21.6325 12.1111 21.7601 12.0234 21.9006 11.9635C22.0411 11.9037 22.1917 11.8729 22.3437 11.8729C22.4958 11.8729 22.6464 11.9037 22.7869 11.9635C22.9274 12.0234 23.055 12.1111 23.1624 12.2217Z" fill="white"/>
    </symbol>

    <symbol id="wallet" fill="currentColor" viewBox="0 0 39 38">
        <path fill-rule="evenodd" clip-rule="evenodd" d="M37.5271 25.2231H29.9145C26.3471 25.2231 23.4435 22.3214 23.4416 18.7558C23.4416 15.1865 26.3452 12.2829 29.9145 12.281H37.5271C38.3056 12.281 38.9375 12.9129 38.9375 13.6915C38.9375 14.47 38.3056 15.1019 37.5271 15.1019H29.9145C27.9004 15.1038 26.2625 16.7417 26.2625 18.754C26.2625 20.7643 27.9023 22.4023 29.9145 22.4023H37.5271C38.3056 22.4023 38.9375 23.0341 38.9375 23.8127C38.9375 24.5912 38.3056 25.2231 37.5271 25.2231Z" fill="white"/>
        <path fill-rule="evenodd" clip-rule="evenodd" d="M30.7751 20.0478H30.1883C29.4098 20.0478 28.7779 19.4159 28.7779 18.6374C28.7779 17.8588 29.4098 17.227 30.1883 17.227H30.7751C31.5536 17.227 32.1855 17.8588 32.1855 18.6374C32.1855 19.4159 31.5536 20.0478 30.7751 20.0478Z" fill="white"/>
        <mask id="mask0_1_90" style="mask-type:luminance" maskUnits="userSpaceOnUse" x="0" y="0" width="39" height="38">
        <path fill-rule="evenodd" clip-rule="evenodd" d="M0.125 0.972015H38.9373V37.028H0.125V0.972015Z" fill="white"/>
        </mask>
        <g mask="url(#mask0_1_90)">
        <path fill-rule="evenodd" clip-rule="evenodd" d="M11.4039 3.79285C6.7401 3.79285 2.94511 7.58784 2.94511 12.2517V25.7485C2.94511 30.4123 6.7401 34.2073 11.4039 34.2073H27.6595C32.3234 34.2073 36.1165 30.4123 36.1165 25.7485V12.2517C36.1165 7.58784 32.3234 3.79285 27.6595 3.79285H11.4039ZM27.6599 37.0282H11.4043C5.18522 37.0282 0.124603 31.9676 0.124603 25.7485V12.2517C0.124603 6.03075 5.18522 0.972015 11.4043 0.972015H27.6599C33.8789 0.972015 38.9377 6.03075 38.9377 12.2517V25.7485C38.9377 31.9676 33.8789 37.0282 27.6599 37.0282Z" fill="white"/>
        </g>
        <path fill-rule="evenodd" clip-rule="evenodd" d="M20.2181 12.3271H10.0649C9.28638 12.3271 8.65451 11.6952 8.65451 10.9167C8.65451 10.1381 9.28638 9.50623 10.0649 9.50623H20.2181C20.9967 9.50623 21.6286 10.1381 21.6286 10.9167C21.6286 11.6952 20.9967 12.3271 20.2181 12.3271Z" fill="white"/>
    </symbol>

    <symbol id="truck" fill="currentColor" viewBox="0 0 62 38">
        <path d="M60.8302 17.5009L58.4906 13.8752C58.4218 13.8055 58.4218 13.8055 58.3529 13.7358L53.2608 5.92661C52.3663 4.53211 50.8524 3.76514 49.2697 3.76514H41.081V2.57982C41.081 1.1156 39.9112 0 38.535 0H36.4706C35.7825 0 35.0943 0.278899 34.6815 0.766973L28.1443 7.39083C28.0755 7.46055 27.9378 7.53028 27.8002 7.53028H2.54606C1.101 7.53028 0 8.7156 0 10.1101V19.8716C0 20.9872 0.688124 21.8936 1.6515 22.3119L1.99556 24.055C2.202 25.2404 2.82131 26.2862 3.71587 27.1927L4.88568 28.378C4.67925 29.0752 4.54162 29.7725 4.54162 30.5394C4.54162 34.6532 7.84462 38 11.9045 38C15.6204 38 18.6482 35.211 19.1987 31.5853H20.5061C21.0566 35.211 24.0844 38 27.8002 38C31.5161 38 34.5438 35.211 35.0943 31.5853H42.8013C43.3518 35.211 46.3796 38 50.0955 38C53.8113 38 56.8391 35.211 57.3896 31.5853C59.9356 31.5156 62 29.3541 62 26.7046V21.3358C61.9312 19.8716 61.5183 18.5468 60.8302 17.5009ZM49.2697 5.92661C50.1643 5.92661 50.99 6.41468 51.5405 7.18165L55.6004 13.4569H41.081V5.92661H49.2697ZM2.13319 10.0404C2.13319 9.76147 2.33962 9.62202 2.54606 9.62202H27.8002C28.4883 9.62202 29.1077 9.34312 29.5893 8.85504L36.1265 2.23119C36.1953 2.16147 36.333 2.09174 36.4018 2.09174H38.3973C38.6726 2.09174 38.8102 2.30092 38.8102 2.51009V4.81101V17.5706V20.1505H2.54606C2.27081 20.1505 2.13319 19.9413 2.13319 19.7321V10.0404ZM5.22974 25.5193C4.67925 24.9615 4.26637 24.2642 4.12875 23.4972L3.92231 22.3816H38.9478V29.3541H35.0255C34.475 25.7284 31.4473 22.9394 27.7314 22.9394C24.0155 22.9394 20.9878 25.7284 20.4373 29.3541H19.1299C18.5794 25.7284 15.5516 22.9394 11.8357 22.9394C9.28968 22.9394 7.08768 24.1945 5.78024 26.2165L5.22974 25.5193ZM11.9045 35.6991C9.01443 35.6991 6.67481 33.3284 6.67481 30.4C6.67481 27.4716 9.01443 25.1009 11.9045 25.1009C14.7947 25.1009 17.1343 27.4716 17.1343 30.4C17.1343 33.3284 14.7947 35.6991 11.9045 35.6991ZM27.7314 35.6991C24.8413 35.6991 22.5017 33.3284 22.5017 30.4C22.5017 27.4716 24.8413 25.1009 27.7314 25.1009C30.6215 25.1009 32.9612 27.4716 32.9612 30.4C32.9612 33.3284 30.6215 35.6991 27.7314 35.6991ZM50.0266 35.6991C47.1365 35.6991 44.7969 33.3284 44.7969 30.4C44.7969 27.4716 47.1365 25.1009 50.0266 25.1009C52.9168 25.1009 55.2564 27.4716 55.2564 30.4C55.2564 33.3284 52.9168 35.6991 50.0266 35.6991ZM59.798 26.5651C59.798 28.0294 58.697 29.145 57.3208 29.2844C56.7703 25.6587 53.7425 22.9394 50.0266 22.9394C46.3108 22.9394 43.283 25.7284 42.7325 29.3541H41.0122V21.3358V17.6404V15.5486H56.9767L59.0411 18.6862C59.5228 19.4532 59.798 20.2899 59.798 21.2661V26.5651Z" fill="white"/>
    </symbol>

    <symbol id="box" fill="currentColor" viewBox="0 0 16 16">
        <path d="M8.186 1.11297C8.06662 1.06513 7.93338 1.06513 7.814 1.11297L1.846 3.49997L8 5.96097L14.154 3.49997L8.186 1.11297ZM15 4.23897L8.5 6.83897V14.761L15 12.161V4.23897ZM7.5 14.762V6.83797L1 4.23897V12.162L7.5 14.762ZM7.443 0.183972C7.80057 0.040971 8.19943 0.040971 8.557 0.183972L15.686 3.03597C15.7787 3.07312 15.8581 3.13716 15.9141 3.21986C15.9701 3.30256 16 3.40012 16 3.49997V12.162C15.9999 12.3618 15.9399 12.557 15.8278 12.7224C15.7157 12.8878 15.5566 13.0158 15.371 13.09L8.186 15.964C8.06662 16.0118 7.93338 16.0118 7.814 15.964L0.63 13.09C0.444251 13.016 0.284942 12.888 0.172642 12.7226C0.0603417 12.5572 0.000206329 12.3619 0 12.162L0 3.49997C2.32399e-05 3.40012 0.0299437 3.30256 0.085907 3.21986C0.14187 3.13716 0.221313 3.07312 0.314 3.03597L7.443 0.183972Z" fill="#23252D" fill-opacity="0.2"/>
    </symbol>
</svg>
